<svg version="1.1" id="Layer_1" xmlns="http://www.w3.org/2000/svg" xmlns:xlink="http://www.w3.org/1999/xlink" viewBox="0 0 512 512" xml:space="preserve" fill="#000000"><g id="SVGRepo_bgCarrier" stroke-width="0"></g><g id="SVGRepo_tracerCarrier" stroke-linecap="round" stroke-linejoin="round"></g><g id="SVGRepo_iconCarrier"> <polygon style="fill:#CDD4D5;" points="376.047,169.216 315.712,108.881 366.997,57.596 433.366,27.428 457.5,51.563 427.332,117.931 "></polygon> <g> <rect x="248.868" y="105.928" transform="matrix(-0.7071 -0.7071 0.7071 -0.7071 299.1308 561.8752)" style="fill:#9BAAAB;" width="34.131" height="226.115"></rect> <polygon style="fill:#9BAAAB;" points="345.55,138.72 376.047,169.216 427.332,117.931 457.5,51.563 445.104,39.166 "></polygon> </g> <rect x="263.03" y="111.805" transform="matrix(0.7071 0.7071 -0.7071 0.7071 238.6089 -126.3273)" style="fill:#687F82;" width="17.53" height="226.115"></rect> <rect x="53.597" y="309.734" transform="matrix(-0.7071 -0.7071 0.7071 -0.7071 -79.5995 718.7527)" style="fill:#FF8C29;" width="110.924" height="132.256"></rect> <g> <polygon style="fill:#FFD1A9;" points="74.37,476.928 8,410.559 23.084,383.408 101.52,461.844 "></polygon> <polygon style="fill:#FFD1A9;" points="158.84,271.787 213.141,326.089 195.041,368.324 116.605,289.888 "></polygon> </g> <g> <path style="fill:#F0353D;" d="M62.303,430.625c-2.047,0-4.095-0.782-5.656-2.343c-3.124-3.124-3.124-8.189,0-11.313l93.52-93.52 c3.124-3.124,8.189-3.124,11.312,0c3.124,3.124,3.124,8.189,0,11.312l-93.52,93.52C66.397,429.844,64.349,430.625,62.303,430.625z"></path> <path style="fill:#F0353D;" d="M86.436,448.726c-2.048,0-4.095-0.782-5.656-2.343c-3.124-3.124-3.124-8.189,0-11.313l90.503-90.503 c3.124-3.124,8.189-3.124,11.312,0c3.124,3.124,3.124,8.189,0,11.313l-90.503,90.503C90.531,447.945,88.484,448.726,86.436,448.726 z"></path> <path style="fill:#F0353D;" d="M44.203,406.491c-2.047,0-4.095-0.781-5.656-2.343c-3.124-3.124-3.124-8.189,0-11.312l90.502-90.503 c3.124-3.124,8.189-3.124,11.313,0c3.124,3.124,3.124,8.189,0,11.312l-90.503,90.503C48.297,405.709,46.249,406.491,44.203,406.491 z"></path> </g> <polygon style="fill:#9BAAAB;" points="151.039,179.073 243.05,271.084 335.062,363.096 365.23,332.928 273.218,240.917 181.206,148.905 "></polygon> <polygon style="fill:#687F82;" points="166.638,163.474 151.039,179.073 243.05,271.084 335.062,363.096 350.661,347.497 "></polygon> <g> <polygon style="fill:#CDD4D5;" points="108.804,40.301 166.123,97.62 132.938,130.804 99.754,163.989 42.435,106.67 12.267,136.838 81.653,206.224 148.021,200.19 175.173,173.039 202.324,145.888 208.357,79.519 138.971,10.133 "></polygon> <polygon style="fill:#CDD4D5;" points="473.834,405.331 416.514,348.012 383.331,381.197 350.146,414.381 407.464,471.699 377.297,501.868 307.911,432.482 313.945,366.113 341.096,338.962 368.247,311.811 434.616,305.777 504.002,375.163 "></polygon> </g> <g> <polygon style="fill:#9BAAAB;" points="132.938,130.804 99.754,163.989 42.435,106.67 12.267,136.838 81.653,206.224 148.021,200.19 175.173,173.039 175.689,172.524 133.454,130.289 "></polygon> <polygon style="fill:#9BAAAB;" points="383.331,381.197 383.846,380.681 341.611,338.446 341.096,338.962 313.945,366.113 307.911,432.482 377.297,501.868 407.464,471.699 350.146,414.381 "></polygon> </g> <path d="M509.658,369.507l-69.386-69.386c-1.679-1.679-4.017-2.525-6.38-2.31l-66.37,6.034c-1.863,0.17-3.608,0.987-4.932,2.31 l-6.411,6.41l-74.185-74.185l75.952-75.952l12.444,12.445c1.561,1.561,3.609,2.343,5.656,2.343s4.095-0.781,5.656-2.343 l51.285-51.285c0.678-0.678,1.229-1.473,1.625-2.346l30.167-66.37c1.38-3.036,0.733-6.609-1.625-8.967L439.02,21.771 c-2.358-2.358-5.93-3.007-8.967-1.625l-66.37,30.169c-0.874,0.397-1.668,0.947-2.347,1.625l-51.281,51.286 c-3.124,3.124-3.124,8.189,0,11.312l12.445,12.444l-75.952,75.952l-44.978-44.978l6.41-6.41c1.324-1.324,2.141-3.069,2.31-4.932 l6.034-66.37c0.215-2.365-0.631-4.703-2.31-6.38L144.628,4.477c-3.124-3.124-8.189-3.124-11.313,0l-30.166,30.167 c-3.124,3.124-3.124,8.189,0,11.312l51.662,51.662l-55.056,55.056l-51.662-51.661c-3.124-3.124-8.189-3.124-11.312,0L6.611,131.182 c-3.124,3.124-3.124,8.189,0,11.312l69.386,69.386c1.507,1.507,3.544,2.343,5.656,2.343c0.241,0,0.483-0.011,0.725-0.033 l66.37-6.034c1.863-0.17,3.608-0.987,4.932-2.31l6.41-6.41l44.978,44.978l-31.144,31.144l-9.428-9.428 c-2.312-2.311-5.8-2.984-8.808-1.696l-42.089,18.038c-0.005,0.002-0.011,0.004-0.016,0.006l-0.13,0.055 c-0.062,0.027-0.119,0.061-0.18,0.089c-0.164,0.075-0.326,0.151-0.486,0.238c-0.1,0.054-0.195,0.114-0.291,0.172 c-0.125,0.075-0.25,0.149-0.372,0.231c-0.127,0.085-0.246,0.177-0.367,0.27c-0.085,0.065-0.172,0.127-0.255,0.196 c-0.145,0.121-0.283,0.249-0.418,0.378c-0.045,0.043-0.093,0.079-0.137,0.124l-0.091,0.091c-0.009,0.009-0.017,0.017-0.026,0.026 l-93.268,93.268c-0.002,0.001-0.003,0.003-0.005,0.005l-0.129,0.129c-0.049,0.049-0.091,0.103-0.139,0.154 c-0.118,0.125-0.237,0.251-0.348,0.384c-0.083,0.099-0.159,0.204-0.237,0.306c-0.078,0.103-0.157,0.205-0.229,0.313 c-0.098,0.144-0.186,0.291-0.274,0.439c-0.035,0.06-0.076,0.115-0.11,0.176l-0.09,0.161c-0.001,0.002-0.002,0.003-0.003,0.005 L1.007,406.674c-1.734,3.122-1.189,7.016,1.336,9.541l66.37,66.369c1.539,1.539,3.587,2.343,5.659,2.343 c1.327,0,2.663-0.33,3.882-1.007l27.15-15.084c0.066-0.036,0.125-0.08,0.19-0.118c0.142-0.084,0.285-0.17,0.422-0.263 c0.111-0.076,0.215-0.157,0.321-0.237c0.1-0.076,0.202-0.15,0.299-0.231c0.134-0.111,0.26-0.229,0.385-0.348 c0.05-0.048,0.105-0.09,0.154-0.139l0.131-0.131c0.001-0.001,0.002-0.002,0.003-0.003l93.385-93.385 c0.103-0.103,0.194-0.213,0.29-0.321c0.065-0.073,0.133-0.142,0.196-0.217c0.02-0.023,0.044-0.046,0.063-0.07 c0.199-0.244,0.377-0.5,0.543-0.76c0.035-0.057,0.067-0.115,0.101-0.172c0.174-0.289,0.329-0.585,0.463-0.888 c0.012-0.027,0.028-0.049,0.039-0.076l0.051-0.121c0.004-0.01,0.009-0.02,0.013-0.03l18.036-42.084 c1.288-3.007,0.616-6.494-1.696-8.808l-9.428-9.428l31.144-31.144l74.185,74.185l-6.41,6.41c-1.324,1.324-2.141,3.069-2.31,4.932 l-6.034,66.37c-0.215,2.365,0.631,4.703,2.31,6.38l69.386,69.386c1.561,1.561,3.609,2.343,5.656,2.343s4.095-0.781,5.656-2.343 l30.167-30.167c3.124-3.124,3.124-8.189,0-11.312l-51.663-51.662l55.056-55.056l51.663,51.662c3.124,3.124,8.189,3.124,11.312,0 l30.167-30.167C512.782,377.695,512.782,372.63,509.658,369.507z M326.011,342.733l-79.84-79.841l0,0l0,0l-24.135-24.135 l-50.635-50.634l18.855-18.855l50.634,50.635l24.134,24.134h0.001l79.841,79.841L326.011,342.733z M185.236,286.871l31.144-31.144 l12.821,12.822l-31.144,31.144L185.236,286.871z M346.633,151.116l-75.952,75.952l-12.821-12.821l75.952-75.952L346.633,151.116z M371.628,64.279l60.002-27.274l16.294,16.294l-27.274,60.002l-44.603,44.603l-12.444-12.444l-24.134-24.134l-12.444-12.444 L371.628,64.279z M144.413,192.486l-59.754,5.432l-61.08-61.08l18.855-18.855l51.662,51.662c3.124,3.124,8.189,3.124,11.312,0 l66.37-66.37c3.124-3.124,3.124-8.189,0-11.312l-51.662-51.662l18.855-18.855l61.08,61.08l-5.432,59.754l-10.02,10.02 l-30.169,30.169L144.413,192.486z M150.151,334.748c0.005,0.005,0.01,0.012,0.015,0.016c0.005,0.005,0.011,0.01,0.016,0.014 l21.101,21.101l12.444,12.444l-82.208,82.207l-33.561-33.561l-33.561-33.561l82.208-82.207l12.444,12.444L150.151,334.748z M75.76,467.004l-57.836-57.836l7.003-12.606l31.719,31.719l31.719,31.719L75.76,467.004z M192.343,354.313l-9.745-9.745 l-21.064-21.063c-0.017-0.018-0.033-0.038-0.05-0.055c-0.018-0.017-0.037-0.033-0.055-0.05l-21.066-21.066l-9.747-9.747 l26.397-11.313l11.255,11.254L192.4,316.66l11.254,11.255L192.343,354.313z M473.834,394.019l-51.663-51.662 c-3.124-3.124-8.189-3.124-11.312,0l-66.37,66.37c-3.124,3.124-3.124,8.189,0,11.312l51.663,51.663l-18.855,18.855l-61.08-61.08 l5.432-59.754l10.02-10.02l30.169-30.169c0.002-0.002,0.003-0.003,0.005-0.005l10.014-10.013l59.754-5.432l61.08,61.08 L473.834,394.019z"></path> </g></svg>