<svg version="1.1" id="Layer_1" xmlns="http://www.w3.org/2000/svg" xmlns:xlink="http://www.w3.org/1999/xlink" viewBox="0 0 512 512" xml:space="preserve" fill="#000000"><g id="SVGRepo_bgCarrier" stroke-width="0"></g><g id="SVGRepo_tracerCarrier" stroke-linecap="round" stroke-linejoin="round"></g><g id="SVGRepo_iconCarrier"> <path style="fill:#5B5D6E;" d="M490.221,472.191H21.808V210.96c0-4.976,4.033-9.008,9.009-9.008l0.001-18.014 c-4.976,0.001-9.009-4.032-9.009-9.008V21.794c0-4.975,4.033-9.008,9.008-9.008h45.04v189.167h405.357 c4.975,0,9.008,4.033,9.008,9.008v261.23H490.221z"></path> <path style="fill:#464655;" d="M481.213,183.937H75.855V12.786h405.357c4.975,0,9.008,4.033,9.008,9.008v153.135 C490.221,179.904,486.187,183.937,481.213,183.937z"></path> <g> <path style="fill:#707487;" d="M39.824,472.191H21.808V210.959c0-4.975,4.033-9.008,9.008-9.008l0.001-18.012 c-4.976,0.001-9.009-4.032-9.009-9.008V21.794c0-4.975,4.033-9.008,9.008-9.008h9.008V472.191z"></path> <rect x="57.842" y="12.786" style="fill:#707487;" width="18.016" height="459.405"></rect> </g> <rect x="75.858" y="183.931" style="fill:#82B9FF;" width="405.357" height="18.016"></rect> <path style="fill:#464655;" d="M508.279,499.215H3.749c-3.308,0-4.966-4-2.626-6.339l20.684-20.684h468.413l20.684,20.684 C513.245,495.215,511.587,499.215,508.279,499.215z"></path> <g> <rect x="66.85" y="183.931" style="fill:#5B5D6E;" width="18.016" height="18.016"></rect> <rect x="30.816" y="183.931" style="fill:#5B5D6E;" width="18.016" height="18.016"></rect> <path style="fill:#5B5D6E;" d="M75.855,472.191L57.84,499.215H3.701c-3.29,0-4.939-3.978-2.611-6.304l20.719-20.719H75.855z"></path> </g> <rect x="48.834" y="183.931" style="fill:#464655;" width="18.016" height="18.016"></rect> </g></svg>