<?xml version="1.0" encoding="iso-8859-1"?>
<!-- Uploaded to: SVG Repo, www.svgrepo.com, Generator: SVG Repo Mixer Tools -->
<svg version="1.1" id="Layer_1" xmlns="http://www.w3.org/2000/svg" xmlns:xlink="http://www.w3.org/1999/xlink" 
	 viewBox="0 0 512 512" xml:space="preserve">
<path d="M355,512H157c-35.2,0-64-28.8-64-64V64c0-35.2,28.8-64,64-64h198c35.2,0,64,28.8,64,64v384C419,483.2,390.2,512,355,512z"/>
<rect x="118" y="60.416" style="fill:#FFD67F;" width="280" height="376.96"/>
<g>
	<circle style="fill:#CCCCCC;" cx="256" cy="30.176" r="12"/>
	<path style="fill:#CCCCCC;" d="M283.128,488.272h-54.264c-7.496,0-13.568-6.064-13.568-13.568c0-7.496,6.064-13.568,13.568-13.568
		h54.264c7.496,0,13.568,6.064,13.568,13.568C296.696,482.208,290.632,488.272,283.128,488.272z"/>
</g>
<rect x="316.685" y="287.348" transform="matrix(-0.7071 0.7071 -0.7071 -0.7071 780.4147 302.3885)" width="21.792" height="50.952"/>
<polygon points="294.704,327.664 341.696,280.672 284.808,270.776 "/>
<path style="fill:#13B7E6;" d="M350.872,251.304H170.024c-16.48,0-29.96-13.48-29.96-29.96v-49.432c0-16.48,13.48-29.96,29.96-29.96
	h180.848c16.48,0,29.96,13.48,29.96,29.96v49.432C380.824,237.824,367.344,251.304,350.872,251.304z"/>
<g>
	<path style="fill:#FFFFFF;" d="M182.304,177.128l3.048,15.624c0.784,3.984,1.568,8.2,2.192,12.576h0.152
		c0.784-4.376,1.88-8.752,2.808-12.496l4.072-15.704h9.368l3.832,15.232c1.008,4.296,2.024,8.592,2.808,12.968h0.152
		c0.544-4.376,1.336-8.672,2.192-13.048l3.272-15.152h11.64l-11.712,38.2H204.96l-3.592-13.44c-0.944-3.752-1.64-7.184-2.432-11.872
		h-0.152c-0.704,4.76-1.488,8.28-2.496,11.872l-3.824,13.44h-11.176l-11.096-38.2L182.304,177.128L182.304,177.128z"/>
	<path style="fill:#FFFFFF;" d="M243.136,177.128l3.048,15.624c0.784,3.984,1.568,8.2,2.192,12.576h0.152
		c0.784-4.376,1.88-8.752,2.808-12.496l4.072-15.704h9.368l3.832,15.232c1.008,4.296,2.024,8.592,2.808,12.968h0.152
		c0.544-4.376,1.336-8.672,2.192-13.048l3.272-15.152h11.64l-11.712,38.2h-11.168l-3.592-13.44
		c-0.944-3.752-1.64-7.184-2.432-11.872h-0.152c-0.704,4.76-1.488,8.28-2.496,11.872l-3.824,13.44H242.12l-11.096-38.2
		L243.136,177.128L243.136,177.128z"/>
	<path style="fill:#FFFFFF;" d="M303.968,177.128l3.048,15.624c0.784,3.984,1.568,8.2,2.192,12.576h0.152
		c0.784-4.376,1.88-8.752,2.808-12.496l4.072-15.704h9.368l3.832,15.232c1.008,4.296,2.024,8.592,2.808,12.968h0.152
		c0.544-4.376,1.336-8.672,2.192-13.048l3.272-15.152h11.64l-11.712,38.2H326.64l-3.592-13.44c-0.944-3.752-1.64-7.184-2.432-11.872
		h-0.152c-0.704,4.76-1.488,8.28-2.496,11.872l-3.824,13.44H302.96l-11.096-38.2L303.968,177.128L303.968,177.128z"/>
</g>
</svg>